# xmcd CD database file
#
# Track frame offsets:
#	150
#	28492
#	62783
#	97359
#	129609
#	174138
#	207209
#	237660
#	269553
#
# Disc length: 3967 seconds
#
# Revision: 1
# Processed by: cddbd v1.5.2PL0 Copyright (c) Steve Scherf et al.
# Submitted via: CDex 1.79
#
DISCID=8d0f7d09
DTITLE=Sylvia Cuenca and Kyle Koehler - EXIT 13
DYEAR=2002
DGENRE=Jazz
TTITLE0=Miss C's Shuffle
TTITLE1=EXIT 13
TTITLE2=Slow, Hot Wind
TTITLE3=Big Ed
TTITLE4=Ritha
TTITLE5=Minor League
TTITLE6=Happy
TTITLE7=It's Easy To Remember
TTITLE8=Croquet Ballet
EXTD=YEAR: 2002
EXTT0=
EXTT1=
EXTT2=
EXTT3=
EXTT4=
EXTT5=
EXTT6=
EXTT7=
EXTT8=
PLAYORDER=
